<?xml version="1.0" encoding="utf-8"?>
<!-- Generator: Adobe Illustrator 18.0.0, SVG Export Plug-In . SVG Version: 6.00 Build 0)  -->
<!DOCTYPE svg PUBLIC "-//W3C//DTD SVG 1.1//EN" "http://www.w3.org/Graphics/SVG/1.1/DTD/svg11.dtd">
<svg version="1.1" xmlns="http://www.w3.org/2000/svg" xmlns:xlink="http://www.w3.org/1999/xlink" x="0px" y="0px"
	 viewBox="0 0 100 100" enable-background="new 0 0 100 100" xml:space="preserve">
<g id="Слой_1">
	<g>
		<path fill="#FF7936" d="M50.2,27.8c6.2,0,11.3,6.6,11.3,14.7c0,8.1-5.1,14.7-11.3,14.7c-6.2,0-11.3-6.6-11.3-14.7
			C38.9,34.4,43.9,27.8,50.2,27.8 M50.2,24.5c-8,0-14.6,8-14.6,18s6.5,18,14.6,18c8,0,14.6-8,14.6-18S58.2,24.5,50.2,24.5L50.2,24.5
			z"/>
		<path fill="#FF7936" d="M36,60.5"/>
		<path fill="#FF7936" d="M71.5,63.7l-11-4c-0.8-0.3-1.8,0.1-2.1,1c-0.3,0.8,0.1,1.8,1,2.1l11,4c1,0.4,2,1.7,2,2.8v1.2
			c0,0.9-0.7,1.1-1.6,1.1H53h-5.7H30.6c-0.9,0-1.6-0.2-1.6-1.1v-1.2c0-1.1,0.9-2.5,2-2.8l9.9-4c0.8-0.3,1.3-1.2,1-2.1
			c-0.3-0.8-1.2-1.3-2.1-1l-9.9,4c-2.3,0.8-4.1,3.4-4.1,5.9v1.2c0,2.7,2.2,4.3,4.9,4.3h16.7H53h17.8c2.7,0,4.9-1.7,4.9-4.3v-1.2
			C75.7,67.1,73.8,64.5,71.5,63.7z"/>
	</g>
</g>
<g id="Слой_2">
</g>
</svg>
