<?xml version="1.0" encoding="utf-8"?>
<!-- Generator: Adobe Illustrator 18.0.0, SVG Export Plug-In . SVG Version: 6.00 Build 0)  -->
<!DOCTYPE svg PUBLIC "-//W3C//DTD SVG 1.1//EN" "http://www.w3.org/Graphics/SVG/1.1/DTD/svg11.dtd">
<svg version="1.1" xmlns="http://www.w3.org/2000/svg" xmlns:xlink="http://www.w3.org/1999/xlink" x="0px" y="0px"
	 viewBox="0 0 100 100" enable-background="new 0 0 100 100" xml:space="preserve">
<g id="Слой_1">
</g>
<g id="Слой_2">
	<g>
		<path fill="#FF7936" d="M51,78.4c-1.7,0-3.3-0.7-4.4-2.1L31.8,58.9c-4.3-5.1-6.3-11.6-5.7-18.2c0.6-6.6,3.8-12.6,9-16.8l0.3-0.3
			c4.4-3.6,9.9-5.6,15.6-5.6s11.2,2,15.6,5.6l0.3,0.3c5.2,4.2,8.4,10.2,9,16.8c0.6,6.6-1.4,13.1-5.7,18.2L55.4,76.4
			C54.3,77.7,52.7,78.4,51,78.4z M51,22.1c-4.7,0-9.4,1.7-13.1,4.7L37.6,27c-4.3,3.5-7,8.5-7.5,14.1s1.2,11,4.8,15.3l14.8,17.5
			c0.5,0.5,1.1,0.6,1.4,0.6s0.9-0.1,1.4-0.6l14.8-17.5c3.6-4.3,5.3-9.7,4.8-15.3S68.7,30.5,64.4,27l-0.3-0.3
			C60.4,23.7,55.7,22.1,51,22.1z"/>
	</g>
	<g>
		<path fill="#FF7936" d="M50.6,48h-0.1c-4.1,0-7.4-3.3-7.4-7.4v-0.1c0-4.1,3.3-7.4,7.4-7.4h0.1c4.1,0,7.4,3.3,7.4,7.4v0.1
			C58,44.7,54.7,48,50.6,48z M50.4,37c-1.9,0-3.4,1.5-3.4,3.4v0.1c0,1.9,1.5,3.4,3.4,3.4h0.1c1.9,0,3.4-1.5,3.4-3.4v-0.1
			c0-1.9-1.5-3.4-3.4-3.4H50.4z"/>
	</g>
</g>
</svg>
