<?xml version="1.0" encoding="utf-8"?>
<!-- Generator: Adobe Illustrator 18.0.0, SVG Export Plug-In . SVG Version: 6.00 Build 0)  -->
<!DOCTYPE svg PUBLIC "-//W3C//DTD SVG 1.1//EN" "http://www.w3.org/Graphics/SVG/1.1/DTD/svg11.dtd">
<svg version="1.1" xmlns="http://www.w3.org/2000/svg" xmlns:xlink="http://www.w3.org/1999/xlink" x="0px" y="0px"
	 viewBox="0 0 100 100" enable-background="new 0 0 100 100" xml:space="preserve">
<g id="Слой_1">
</g>
<g id="Слой_2">
	<g>
		<path fill="#FF7936" d="M66,86H34c-3.3,0-6-2.7-6-6V22c0-3.3,2.7-6,6-6h32c3.3,0,6,2.7,6,6v58C72,83.3,69.3,86,66,86z M34,20
			c-1.1,0-2,0.9-2,2v58c0,1.1,0.9,2,2,2h32c1.1,0,2-0.9,2-2V22c0-1.1-0.9-2-2-2H34z"/>
	</g>
	<rect x="32" y="62" fill="#FF7936" width="36" height="4"/>
	<path fill="#FF7936" d="M50,78L50,78c-2.2,0-4-1.8-4-4v0c0-2.2,1.8-4,4-4h0c2.2,0,4,1.8,4,4v0C54,76.2,52.2,78,50,78z"/>
</g>
</svg>
