<?xml version="1.0" encoding="utf-8"?>
<!-- Generator: Adobe Illustrator 18.0.0, SVG Export Plug-In . SVG Version: 6.00 Build 0)  -->
<!DOCTYPE svg PUBLIC "-//W3C//DTD SVG 1.1//EN" "http://www.w3.org/Graphics/SVG/1.1/DTD/svg11.dtd">
<svg version="1.1" xmlns="http://www.w3.org/2000/svg" xmlns:xlink="http://www.w3.org/1999/xlink" x="0px" y="0px"
	 viewBox="0 0 101 101" enable-background="new 0 0 101 101" xml:space="preserve">
<g id="Слой_1">
</g>
<g id="Слой_2">
	<g>
		<path fill="#FF7936" d="M14.7,51.7c-0.7-0.9-0.5-2.1,0.3-2.8L52.6,19c0.9-0.7,2.1-0.5,2.8,0.3l6.2,7.8l3.1-2.5l-6.2-7.8
			c-2.1-2.6-5.8-3-8.4-1L12.5,45.7c-2.6,2.1-3,5.8-1,8.4l6.2,7.8l3.1-2.5L14.7,51.7z"/>
		<path fill="#FF7936" d="M75.3,44.3c0.7,0.9,0.5,2.1-0.3,2.8L37.4,77c-0.9,0.7-2.1,0.5-2.8-0.3l-6.2-7.8l-3.1,2.5l6.2,7.8
			c2.1,2.6,5.8,3,8.4,1l37.5-29.9c2.6-2.1,3-5.8,1-8.4L72.2,34l-3.1,2.5L75.3,44.3z"/>
		<rect x="3.1" y="63.4" transform="matrix(0.7822 -0.623 0.623 0.7822 -35.7416 28.6425)" fill="#FF7936" width="40" height="4"/>
		
			<rect x="64.9" y="10.6" transform="matrix(-0.623 -0.7822 0.7822 -0.623 84.681 101.9245)" fill="#FF7936" width="4" height="40"/>
	</g>
	<polygon fill="#FF7936" points="90,78 82,78 82,70 78,70 78,78 70,78 70,82 78,82 78,90 82,90 82,82 90,82 	"/>
</g>
</svg>
