<?xml version="1.0" encoding="utf-8"?>
<!-- Generator: Adobe Illustrator 18.0.0, SVG Export Plug-In . SVG Version: 6.00 Build 0)  -->
<!DOCTYPE svg PUBLIC "-//W3C//DTD SVG 1.1//EN" "http://www.w3.org/Graphics/SVG/1.1/DTD/svg11.dtd">
<svg version="1.1" xmlns="http://www.w3.org/2000/svg" xmlns:xlink="http://www.w3.org/1999/xlink" x="0px" y="0px"
	 viewBox="0 0 100 100" enable-background="new 0 0 100 100" xml:space="preserve">
<g id="Слой_1">
</g>
<g id="Слой_2">
	<g>
		<path fill="#FF7936" d="M81,58.6v-7.1c0-5.2-4.3-9.5-9.5-9.5H52c-1.1,0-2-0.9-2-2v-1c0-3.3-2.7-6-6-6H19c-3.3,0-6,2.7-6,6v19.6
			c-0.3,0.7-1,1.5-1,2.4v1c0,3.3,3.2,6,6.5,6h57c3.3,0,5.5-2.7,5.5-6v-1C81,60.2,81.3,59.3,81,58.6z M77,51.5V55h-1.5H64v-9h7.5
			C74.5,46,77,48.5,77,51.5z M19,37h25c1.1,0,2,0.9,2,2v1c0,3.3,2.7,6,6,6h8v9H30v-2c0-5.5-4.5-10-10-10h-3v-4
			C17,37.9,17.9,37,19,37z M18,55v-8h2c3.3,0,6,2.7,6,6v2h-7.5H18z M77,62c0,1.1-0.4,2-1.5,2h-57c-1.1,0-2.5-0.9-2.5-2v-1
			c0-1.1,1.4-2,2.5-2H30h45.5c1.1,0,1.5,0.9,1.5,2V62z"/>
		<rect x="38" y="40" fill="#FF7936" width="4" height="4"/>
		<rect x="44" y="45" fill="#FF7936" width="4" height="4"/>
	</g>
</g>
</svg>
