<?xml version="1.0" encoding="utf-8"?>
<!-- Generator: Adobe Illustrator 18.0.0, SVG Export Plug-In . SVG Version: 6.00 Build 0)  -->
<!DOCTYPE svg PUBLIC "-//W3C//DTD SVG 1.1//EN" "http://www.w3.org/Graphics/SVG/1.1/DTD/svg11.dtd">
<svg version="1.1" xmlns="http://www.w3.org/2000/svg" xmlns:xlink="http://www.w3.org/1999/xlink" x="0px" y="0px"
	 viewBox="0 0 100 100" enable-background="new 0 0 100 100" xml:space="preserve">
<g id="Слой_1">
</g>
<g id="Слой_2">
	<g>
		<g>
			<path fill-rule="evenodd" clip-rule="evenodd" fill="#FF7936" d="M47.8,52.2h-4.4v17.2h4.4V52.2z M56.7,26.3V22H43.3v4.3H30v12.9
				h40V26.3H56.7z M65.6,34.9H34.4v-4.3h31.1V34.9z M56.7,52.2h-4.4v17.2h4.4V52.2z M34.4,69.4c0,4.8,4,8.6,8.9,8.6h13.3
				c4.9,0,8.9-3.9,8.9-8.6V43.5H34.4V69.4z M38.9,47.8h22.2v21.5c0,2.4-2,4.3-4.4,4.3H43.3c-2.5,0-4.4-1.9-4.4-4.3V47.8z"/>
		</g>
	</g>
</g>
</svg>
