<?xml version="1.0" encoding="utf-8"?>
<!-- Generator: Adobe Illustrator 18.0.0, SVG Export Plug-In . SVG Version: 6.00 Build 0)  -->
<!DOCTYPE svg PUBLIC "-//W3C//DTD SVG 1.1//EN" "http://www.w3.org/Graphics/SVG/1.1/DTD/svg11.dtd">
<svg version="1.1" xmlns="http://www.w3.org/2000/svg" xmlns:xlink="http://www.w3.org/1999/xlink" x="0px" y="0px"
	 viewBox="0 0 100 100" enable-background="new 0 0 100 100" xml:space="preserve">
<g id="Слой_1">
</g>
<g id="Слой_2">
	<path fill="#FF7936" d="M67,63c-1.8,0-3.3,0.8-4.4,2L39.7,51.7c-1.3-0.8-1.3-2.7,0-3.5L62.6,35c1.1,1.2,2.7,2,4.4,2
		c3.3,0,6-2.7,6-6s-2.7-6-6-6s-6,2.7-6,6c0,0.1,0,0.2,0,0.3L35.1,46.3c-1.4,0.8-2.1,2.3-2,3.7c-0.1,1.5,0.6,2.9,2,3.7L61,68.7
		c0,0.1,0,0.2,0,0.3c0,3.3,2.7,6,6,6s6-2.7,6-6S70.3,63,67,63z"/>
</g>
</svg>
