<?xml version="1.0" encoding="utf-8"?>
<!-- Generator: Adobe Illustrator 18.0.0, SVG Export Plug-In . SVG Version: 6.00 Build 0)  -->
<!DOCTYPE svg PUBLIC "-//W3C//DTD SVG 1.1//EN" "http://www.w3.org/Graphics/SVG/1.1/DTD/svg11.dtd">
<svg version="1.1" xmlns="http://www.w3.org/2000/svg" xmlns:xlink="http://www.w3.org/1999/xlink" x="0px" y="0px"
	 viewBox="0 0 100 100" enable-background="new 0 0 100 100" xml:space="preserve">
<g id="Слой_1">
</g>
<g id="Слой_2">
	<g>
		<path fill="#FF7936" d="M70.7,40.1l-13-14.8c-0.4-0.4-0.8-0.6-1.4-0.6H37.5c-3,0-5.4,2.5-5.4,5.5v38c0,3,2.5,5.5,5.4,5.5h28.1
			c3,0,5.4-2.5,5.4-5.5V41.4C71.1,40.9,71,40.4,70.7,40.1z M58,30.6l7.3,8.3h-5.1c-1.2,0-2.2-1-2.2-2.2V30.6z M65.6,70.3H37.5
			c-1.2,0-2.2-1-2.2-2.2v-38c0-1.2,1-2.2,2.2-2.2h17.2v8.8c0,3,2.5,5.5,5.4,5.5h7.6v25.9C67.8,69.3,66.8,70.3,65.6,70.3z"/>
	</g>
	<rect x="38" y="33" fill="#FF7936" width="12" height="3"/>
	<rect x="38" y="40" fill="#FF7936" width="12" height="3"/>
	<rect x="38" y="48" fill="#FF7936" width="25" height="3"/>
	<rect x="38" y="56" fill="#FF7936" width="25" height="3"/>
</g>
</svg>
