<?xml version="1.0" encoding="utf-8"?>
<!-- Generator: Adobe Illustrator 18.0.0, SVG Export Plug-In . SVG Version: 6.00 Build 0)  -->
<!DOCTYPE svg PUBLIC "-//W3C//DTD SVG 1.1//EN" "http://www.w3.org/Graphics/SVG/1.1/DTD/svg11.dtd">
<svg version="1.1" xmlns="http://www.w3.org/2000/svg" xmlns:xlink="http://www.w3.org/1999/xlink" x="0px" y="0px"
	 viewBox="0 0 100 100" enable-background="new 0 0 100 100" xml:space="preserve">
<g id="Слой_1">
</g>
<g id="Слой_2">
	<g>
        <path fill="#c4c4c4" d="M39.7,22.7c-1.5,0-2.7,1.2-2.7,2.7V35c0,1.5,1.2,2.7,2.7,2.7c1.5,0,2.7-1.2,2.7-2.7v-9.5
			C42.4,24,41.2,22.7,39.7,22.7z"/>
        <path fill="#c4c4c4" d="M60.3,22.7c-1.5,0-2.7,1.2-2.7,2.7V35c0,1.5,1.2,2.7,2.7,2.7c1.5,0,2.7-1.2,2.7-2.7v-9.5
			C63,24,61.8,22.7,60.3,22.7z"/>
        <path fill="#c4c4c4" d="M55.4,28.9H44.6v3.3h10.9V28.9z"/>
        <path fill="#c4c4c4" d="M67.4,28.9h-1.1v3.3h1.1c1.2,0,2.2,1,2.2,2.2v6.6H30.5v-6.6c0-1.2,1-2.2,2.2-2.2h2.1v-3.3h-2.1
			c-3,0-5.4,2.4-5.4,5.4v6.5h0v3.3h0v21.8c0,3,2.4,5.4,5.4,5.4h34.8c3,0,5.4-2.4,5.4-5.4V34.3C72.8,31.3,70.4,28.9,67.4,28.9z
			 M67.4,68H32.6c-1.2,0-2.2-1-2.2-2.2V44.1h39.1v21.8C69.5,67,68.6,68,67.4,68z"/>
        <path fill="#c4c4c4" d="M41.9,50.5c0,1.5-1.2,2.7-2.7,2.7c-1.5,0-2.7-1.2-2.7-2.7c0-1.5,1.2-2.7,2.7-2.7
			C40.6,47.8,41.9,49,41.9,50.5z"/>
        <path fill="#c4c4c4" d="M52.7,50.5c0,1.5-1.2,2.7-2.7,2.7c-1.5,0-2.7-1.2-2.7-2.7c0-1.5,1.2-2.7,2.7-2.7
			C51.5,47.8,52.7,49,52.7,50.5z"/>
        <path fill="#c4c4c4" d="M41.9,61.4c0,1.5-1.2,2.7-2.7,2.7c-1.5,0-2.7-1.2-2.7-2.7c0-1.5,1.2-2.7,2.7-2.7
			C40.6,58.6,41.9,59.9,41.9,61.4z"/>
        <path fill="#c4c4c4" d="M52.7,61.4c0,1.5-1.2,2.7-2.7,2.7c-1.5,0-2.7-1.2-2.7-2.7c0-1.5,1.2-2.7,2.7-2.7
			C51.5,58.6,52.7,59.9,52.7,61.4z"/>
        <path fill="#c4c4c4" d="M63.6,50.5c0,1.5-1.2,2.7-2.7,2.7c-1.5,0-2.7-1.2-2.7-2.7c0-1.5,1.2-2.7,2.7-2.7
			C62.3,47.8,63.6,49,63.6,50.5z"/>
	</g>
</g>
</svg>
