<?xml version="1.0" encoding="utf-8"?>
<!-- Generator: Adobe Illustrator 18.0.0, SVG Export Plug-In . SVG Version: 6.00 Build 0)  -->
<!DOCTYPE svg PUBLIC "-//W3C//DTD SVG 1.1//EN" "http://www.w3.org/Graphics/SVG/1.1/DTD/svg11.dtd">
<svg version="1.1" xmlns="http://www.w3.org/2000/svg" xmlns:xlink="http://www.w3.org/1999/xlink" x="0px" y="0px"
	 viewBox="0 0 100 100" enable-background="new 0 0 100 100" xml:space="preserve">
<g id="Слой_1">
</g>
<g id="Слой_2">
	<path fill="#FF7936" d="M73.9,70.5L53.6,50.3c5.7-7,5.3-17.3-1.2-23.9l-0.2-0.2c-7-7-18.3-7-25.2,0l-0.2,0.2c-7,7-7,18.3,0,25.2
		l0.2,0.2c6.3,6.3,16.1,6.9,23,1.8l20.3,20.3c1,1,2.5,1,3.5,0l0,0C74.8,73.1,74.8,71.5,73.9,70.5z M49.3,49.1
		c-5.4,5.4-14.2,5.4-19.6,0l-0.2-0.2c-5.4-5.4-5.4-14.2,0-19.6l0.2-0.2c5.4-5.4,14.2-5.4,19.6,0l0.2,0.2c5.4,5.4,5.4,14.2,0,19.6
		L49.3,49.1z"/>
</g>
</svg>
