<?xml version="1.0" encoding="utf-8"?>
<!-- Generator: Adobe Illustrator 18.0.0, SVG Export Plug-In . SVG Version: 6.00 Build 0)  -->
<!DOCTYPE svg PUBLIC "-//W3C//DTD SVG 1.1//EN" "http://www.w3.org/Graphics/SVG/1.1/DTD/svg11.dtd">
<svg version="1.1" xmlns="http://www.w3.org/2000/svg" xmlns:xlink="http://www.w3.org/1999/xlink" x="0px" y="0px"
	 viewBox="0 0 100 100" enable-background="new 0 0 100 100" xml:space="preserve">
<g id="Слой_1">
</g>
<g id="Слой_2">
	<g>
		<path fill="#FF7936" d="M58.1,31.3L58.1,31.3c0.2,0,0.5,0,0.7,0l10.3,0.1c1.4,0.2,2.6,1.6,2.7,3l-0.9,10.4c0,2-1.3,5.2-2.8,6.6
			L48.4,68.9c-0.4,0.4-0.9,0.5-1.4,0.5c-0.4,0-1.1-0.1-1.6-0.7L32.2,54c-0.8-0.9-0.7-2.3,0.2-3.1L52,33.4
			C53.3,32.2,56,31.3,58.1,31.3 M58.1,28c-2.8,0-6.4,1.2-8.3,3L30.2,48.5c-2.2,2-2.4,5.4-0.4,7.7l13.2,14.7c1.1,1.2,2.6,1.8,4,1.8
			c1.3,0,2.6-0.5,3.6-1.4l19.6-17.6c2.2-2,4-6.1,3.9-9.1L75,34.4c-0.1-3-2.5-5.8-5.5-6.1l-10.3-0.1C58.9,28,58.5,28,58.1,28L58.1,28
			z"/>
		<path fill="#FF7936" d="M61.7,38.1c1.4,0,2.5,1.1,2.5,2.5c0,1.4-1.1,2.5-2.5,2.5c-1.4,0-2.5-1.1-2.5-2.5
			C59.3,39.2,60.4,38.1,61.7,38.1 M61.7,34.8c-3.2,0-5.7,2.6-5.7,5.8c0,3.2,2.6,5.8,5.7,5.8c3.2,0,5.7-2.6,5.7-5.8
			C67.5,37.4,64.9,34.8,61.7,34.8L61.7,34.8z"/>
	</g>
</g>
</svg>
