<svg xmlns="http://www.w3.org/2000/svg" xmlns:xlink="http://www.w3.org/1999/xlink" preserveAspectRatio="xMidYMid" width="229" height="50" viewBox="0 0 229 50">
  <defs>
    <style>

      .cls-2 {
        fill: #ffffff;
      }
    </style>
  </defs>
  <path d="M225.419,30.066 C226.357,30.066 228.236,29.950 228.999,29.250 C228.999,29.250 228.999,36.534 228.999,36.534 C227.063,37.233 224.890,37.409 222.836,37.409 C216.965,37.409 212.445,35.020 212.445,28.842 C212.445,28.842 212.445,15.383 212.445,15.383 C212.445,15.383 206.809,15.383 206.809,15.383 C206.809,15.383 206.809,8.391 206.809,8.391 C206.809,8.391 212.445,8.391 212.445,8.391 C212.445,8.391 212.445,-0.000 212.445,-0.000 C212.445,-0.000 221.251,-0.000 221.251,-0.000 C221.251,-0.000 221.251,8.391 221.251,8.391 C221.251,8.391 228.999,8.391 228.999,8.391 C228.999,8.391 228.999,15.383 228.999,15.383 C228.999,15.383 221.251,15.383 221.251,15.383 C221.251,15.383 221.251,24.822 221.251,24.822 C221.251,27.852 221.603,30.066 225.419,30.066 ZM196.711,22.841 C196.711,19.578 196.652,15.383 192.132,15.383 C187.553,15.383 186.848,18.936 186.848,22.607 C186.848,22.607 186.848,36.708 186.848,36.708 C186.848,36.708 178.043,36.708 178.043,36.708 C178.043,36.708 178.043,8.391 178.043,8.391 C178.043,8.391 186.496,8.391 186.496,8.391 C186.496,8.391 186.496,12.237 186.496,12.237 C186.496,12.237 186.614,12.237 186.614,12.237 C187.787,10.022 190.664,7.690 194.950,7.690 C203.872,7.690 205.516,13.517 205.516,21.093 C205.516,21.093 205.516,36.708 205.516,36.708 C205.516,36.708 196.711,36.708 196.711,36.708 C196.711,36.708 196.711,22.841 196.711,22.841 ZM162.308,30.766 C165.185,30.766 167.122,29.310 168.589,27.328 C168.589,27.328 174.754,31.814 174.754,31.814 C171.936,35.368 167.298,37.409 162.719,37.409 C153.914,37.409 146.869,31.582 146.869,22.550 C146.869,13.517 153.914,7.690 162.719,7.690 C170.938,7.690 176.103,13.517 176.103,22.550 C176.103,22.550 176.103,25.288 176.103,25.288 C176.103,25.288 155.675,25.288 155.675,25.288 C156.379,28.610 158.904,30.766 162.308,30.766 ZM167.298,19.344 C167.357,16.433 165.067,13.985 161.897,13.985 C158.023,13.985 155.909,16.606 155.675,19.344 C155.675,19.344 167.298,19.344 167.298,19.344 ZM143.112,15.383 C136.419,15.383 135.598,19.227 135.598,24.880 C135.598,24.880 135.598,36.708 135.598,36.708 C135.598,36.708 126.792,36.708 126.792,36.708 C126.792,36.708 126.792,8.391 126.792,8.391 C126.792,8.391 135.598,8.391 135.598,8.391 C135.598,8.391 135.598,12.936 135.598,12.936 C135.598,12.936 135.715,12.936 135.715,12.936 C137.593,9.497 140.059,7.690 143.934,7.690 C144.931,7.690 146.047,7.750 146.869,7.983 C146.869,7.983 146.869,15.965 146.869,15.965 C145.636,15.617 144.403,15.383 143.112,15.383 ZM116.105,33.154 C116.105,33.154 115.988,33.154 115.988,33.154 C114.051,36.185 110.528,37.409 106.947,37.409 C101.606,37.409 96.792,34.378 96.792,28.668 C96.792,18.879 108.767,18.704 116.105,18.704 C116.105,15.617 113.523,13.634 110.470,13.634 C107.593,13.634 105.187,14.916 103.308,17.014 C103.308,17.014 98.611,12.237 98.611,12.237 C101.840,9.206 106.536,7.690 111.174,7.690 C121.448,7.690 124.206,12.877 124.206,22.316 C124.206,22.316 124.206,36.708 124.206,36.708 C124.206,36.708 116.105,36.708 116.105,36.708 C116.105,36.708 116.105,33.154 116.105,33.154 ZM116.105,24.299 C116.105,24.299 113.933,24.299 113.933,24.299 C111.233,24.299 105.245,24.531 105.245,28.377 C105.245,30.473 107.476,31.465 109.413,31.465 C112.877,31.465 116.105,29.658 116.105,26.162 C116.105,26.162 116.105,24.299 116.105,24.299 ZM82.933,37.409 C79.294,37.409 75.889,36.417 73.892,33.680 C73.892,33.680 73.775,33.680 73.775,33.680 C73.775,33.680 73.775,49.994 73.775,49.994 C73.775,49.994 64.970,49.994 64.970,49.994 C64.970,49.994 64.970,8.391 64.970,8.391 C64.970,8.391 73.071,8.391 73.071,8.391 C73.071,8.391 73.071,12.120 73.071,12.120 C73.071,12.120 73.189,12.120 73.189,12.120 C74.538,10.081 77.944,7.690 81.935,7.690 C90.388,7.690 95.966,13.751 95.966,22.316 C95.966,30.182 91.034,37.409 82.933,37.409 ZM80.116,15.383 C75.713,15.383 73.071,18.296 73.071,22.550 C73.071,26.803 75.713,29.718 80.116,29.718 C84.519,29.718 87.160,26.803 87.160,22.550 C87.160,18.296 84.519,15.383 80.116,15.383 ZM49.351,37.409 C45.712,37.409 42.307,36.417 40.311,33.680 C40.311,33.680 40.194,33.680 40.194,33.680 C40.194,33.680 40.194,49.994 40.194,49.994 C40.194,49.994 31.388,49.994 31.388,49.994 C31.388,49.994 31.388,8.391 31.388,8.391 C31.388,8.391 39.489,8.391 39.489,8.391 C39.489,8.391 39.489,12.120 39.489,12.120 C39.489,12.120 39.607,12.120 39.607,12.120 C40.957,10.081 44.362,7.690 48.354,7.690 C56.807,7.690 62.384,13.751 62.384,22.316 C62.384,30.182 57.453,37.409 49.351,37.409 ZM46.534,15.383 C42.131,15.383 39.489,18.296 39.489,22.550 C39.489,26.803 42.131,29.718 46.534,29.718 C50.936,29.718 53.578,26.803 53.578,22.550 C53.578,18.296 50.936,15.383 46.534,15.383 ZM27.474,36.708 C27.474,36.708 19.020,36.708 19.020,36.708 C19.020,36.708 19.020,32.864 19.020,32.864 C19.020,32.864 18.903,32.864 18.903,32.864 C17.729,35.077 14.853,37.409 10.567,37.409 C1.644,37.409 0.000,31.582 0.000,24.006 C0.000,24.006 0.000,8.426 0.000,8.426 C0.000,8.426 4.386,12.778 4.386,12.778 C4.386,12.778 8.806,8.391 8.806,8.391 C8.806,8.391 8.806,22.259 8.806,22.259 C8.806,25.522 8.865,29.718 13.385,29.718 C17.964,29.718 18.669,26.162 18.669,22.492 C18.669,22.492 18.669,4.387 18.669,4.387 C18.669,4.387 23.089,-0.000 23.089,-0.000 C23.089,-0.000 27.509,4.387 27.509,4.387 C27.509,4.387 27.474,4.387 27.474,4.387 C27.474,4.387 27.474,36.708 27.474,36.708 Z" id="path-1" class="cls-2" fill-rule="evenodd"/>
</svg>
