<svg xmlns="http://www.w3.org/2000/svg" xmlns:xlink="http://www.w3.org/1999/xlink" preserveAspectRatio="xMidYMid" width="20" height="20" viewBox="0 0 20 20">
  <defs>
    <style>

      .cls-2 {
        fill: #e4e4e4;
      }
    </style>
  </defs>
  <path d="M18.583,12.936 C18.583,12.936 17.756,12.936 17.756,12.936 C17.642,12.936 17.538,13.005 17.494,13.111 C17.451,13.217 17.475,13.339 17.556,13.420 C17.556,13.420 18.140,14.003 18.140,14.003 C18.671,14.533 18.671,15.401 18.140,15.931 C18.140,15.931 15.929,18.138 15.929,18.138 C15.663,18.403 15.313,18.536 14.963,18.536 C14.613,18.536 14.264,18.403 13.998,18.138 C13.998,18.138 13.414,17.555 13.414,17.555 C13.360,17.501 13.287,17.472 13.213,17.472 C13.177,17.472 13.140,17.479 13.105,17.494 C12.999,17.537 12.930,17.641 12.930,17.755 C12.930,17.755 12.930,18.580 12.930,18.580 C12.930,19.330 12.315,20.000 11.564,20.000 C11.564,20.000 8.437,20.000 8.437,20.000 C7.686,20.000 7.072,19.330 7.072,18.580 C7.072,18.580 7.072,17.755 7.072,17.755 C7.072,17.641 7.003,17.537 6.897,17.494 C6.862,17.479 6.825,17.472 6.788,17.472 C6.714,17.472 6.642,17.501 6.588,17.555 C6.588,17.555 6.003,18.138 6.003,18.138 C5.738,18.403 5.388,18.536 5.038,18.536 C4.688,18.536 4.338,18.403 4.073,18.138 C4.073,18.138 1.861,15.931 1.861,15.931 C1.330,15.401 1.330,14.533 1.861,14.003 C1.861,14.003 2.445,13.420 2.445,13.420 C2.527,13.339 2.551,13.217 2.507,13.111 C2.463,13.005 2.360,12.936 2.245,12.936 C2.245,12.936 1.419,12.936 1.419,12.936 C0.668,12.936 -0.004,12.323 -0.004,11.573 C-0.004,11.573 -0.004,8.451 -0.004,8.451 C-0.004,7.701 0.668,7.088 1.419,7.088 C1.419,7.088 2.245,7.088 2.245,7.088 C2.360,7.088 2.463,7.019 2.507,6.913 C2.551,6.807 2.527,6.686 2.445,6.605 C2.445,6.605 1.861,6.021 1.861,6.021 C1.330,5.491 1.330,4.624 1.861,4.094 C1.861,4.094 4.073,1.886 4.073,1.886 C4.338,1.621 4.688,1.488 5.038,1.488 C5.388,1.488 5.738,1.621 6.003,1.886 C6.003,1.886 6.588,2.469 6.588,2.469 C6.642,2.523 6.714,2.552 6.788,2.552 C6.825,2.552 6.862,2.545 6.897,2.530 C7.003,2.487 7.072,2.383 7.072,2.269 C7.072,2.269 7.072,1.444 7.072,1.444 C7.072,0.694 7.686,-0.004 8.437,-0.004 C8.437,-0.004 11.564,-0.004 11.564,-0.004 C12.315,-0.004 12.930,0.694 12.930,1.444 C12.930,1.444 12.930,2.269 12.930,2.269 C12.930,2.383 12.999,2.487 13.105,2.530 C13.140,2.545 13.177,2.552 13.213,2.552 C13.287,2.552 13.360,2.523 13.414,2.469 C13.414,2.469 13.998,1.886 13.998,1.886 C14.264,1.621 14.613,1.488 14.963,1.488 C15.313,1.488 15.663,1.621 15.929,1.886 C15.929,1.886 18.140,4.094 18.140,4.094 C18.671,4.624 18.671,5.491 18.140,6.021 C18.140,6.021 17.556,6.605 17.556,6.605 C17.475,6.686 17.451,6.807 17.494,6.913 C17.538,7.019 17.642,7.088 17.756,7.088 C17.756,7.088 18.583,7.088 18.583,7.088 C19.334,7.088 20.005,7.701 20.005,8.451 C20.005,8.451 20.005,11.573 20.005,11.573 C20.005,12.323 19.334,12.936 18.583,12.936 ZM18.640,8.451 C18.640,8.451 17.756,8.451 17.756,8.451 C17.087,8.451 16.489,8.052 16.233,7.435 C15.977,6.817 16.117,6.113 16.591,5.641 C16.591,5.641 17.175,5.057 17.175,5.057 C17.175,5.057 14.963,2.850 14.963,2.850 C14.963,2.850 14.379,3.433 14.379,3.433 C14.068,3.744 13.654,3.915 13.213,3.915 C12.996,3.915 12.783,3.873 12.582,3.790 C11.964,3.534 11.564,2.937 11.564,2.269 C11.564,2.269 11.564,1.359 11.564,1.359 C11.564,1.359 8.437,1.359 8.437,1.359 C8.437,1.359 8.437,2.269 8.437,2.269 C8.437,2.937 8.037,3.534 7.419,3.790 C7.218,3.873 7.006,3.915 6.788,3.915 C6.348,3.915 5.934,3.744 5.622,3.433 C5.622,3.433 5.038,2.850 5.038,2.850 C5.038,2.850 2.826,5.057 2.826,5.057 C2.826,5.057 3.411,5.641 3.411,5.641 C3.884,6.113 4.024,6.817 3.768,7.435 C3.512,8.052 2.914,8.451 2.245,8.451 C2.245,8.451 1.362,8.451 1.362,8.451 C1.362,8.451 1.362,11.573 1.362,11.573 C1.362,11.573 2.245,11.573 2.245,11.573 C2.914,11.573 3.512,11.972 3.768,12.589 C4.024,13.207 3.884,13.911 3.411,14.383 C3.411,14.383 2.826,14.967 2.826,14.967 C2.826,14.967 5.038,17.175 5.038,17.175 C5.038,17.175 5.622,16.591 5.622,16.591 C5.934,16.280 6.348,16.109 6.788,16.109 C7.006,16.109 7.218,16.151 7.419,16.234 C8.037,16.490 8.437,17.087 8.437,17.755 C8.437,17.755 8.437,18.637 8.437,18.637 C8.437,18.637 11.564,18.637 11.564,18.637 C11.564,18.637 11.564,17.755 11.564,17.755 C11.564,17.087 11.964,16.490 12.582,16.234 C12.783,16.151 12.996,16.109 13.213,16.109 C13.654,16.109 14.068,16.280 14.379,16.591 C14.379,16.591 14.964,17.175 14.964,17.175 C14.964,17.175 17.175,14.967 17.175,14.967 C17.175,14.967 16.591,14.383 16.591,14.383 C16.117,13.911 15.977,13.207 16.233,12.589 C16.489,11.972 17.087,11.573 17.756,11.573 C17.756,11.573 18.640,11.573 18.640,11.573 C18.640,11.573 18.640,8.451 18.640,8.451 ZM10.001,14.146 C7.717,14.146 5.859,12.292 5.859,10.012 C5.859,7.732 7.717,5.878 10.001,5.878 C12.284,5.878 14.142,7.732 14.142,10.012 C14.142,12.292 12.284,14.146 10.001,14.146 ZM10.001,7.241 C8.470,7.241 7.225,8.484 7.225,10.012 C7.225,11.540 8.470,12.783 10.001,12.783 C11.531,12.783 12.777,11.540 12.777,10.012 C12.777,8.484 11.531,7.241 10.001,7.241 Z" id="path-1" class="cls-2" fill-rule="evenodd"/>
</svg>
