<svg xmlns="http://www.w3.org/2000/svg" xmlns:xlink="http://www.w3.org/1999/xlink" preserveAspectRatio="xMidYMid" width="55" height="30" viewBox="0 0 55 30">
  <defs>
    <style>

      .cls-3 {
        fill: #ffffff;
        stroke: #dfdfdf;
        stroke-width: 1px;
      }

      .cls-4 {
        fill: #ff5600;
        filter: url(#filter-chain-1);
      }

      .cls-5 {
        fill: #c8b4d7;
      }
    </style>

    <filter id="filter-chain-1" filterUnits="userSpaceOnUse">
      <feOffset in="SourceAlpha" dx="0" dy="3"/>
      <feGaussianBlur result="dropShadow" stdDeviation="1.414"/>
      <feFlood flood-color="#000000" flood-opacity="0.1"/>
      <feComposite operator="in" in2="dropShadow"/>
      <feComposite in="SourceGraphic" result="dropShadow"/>
      <feOffset in="SourceAlpha" dx="0" dy="-2"/>
      <feGaussianBlur result="innerShadowBlur" stdDeviation="0"/>
      <feFlood flood-color="#000000" flood-opacity="0.15"/>
      <feComposite operator="out" in2="innerShadowBlur"/>
      <feComposite operator="in" in2="SourceAlpha"/>
      <feBlend mode="multiply" in2="dropShadow" result="innerShadow"/>
    </filter>
  </defs>
  <g id="switchersvg">
    <path d="M14.000,1.000 C14.000,1.000 42.000,1.000 42.000,1.000 C49.180,1.000 55.000,6.820 55.000,14.000 C55.000,21.180 49.180,27.000 42.000,27.000 C42.000,27.000 14.000,27.000 14.000,27.000 C6.820,27.000 1.000,21.180 1.000,14.000 C1.000,6.820 6.820,1.000 14.000,1.000 Z" id="path-1" class="cls-3" fill-rule="evenodd"/>
    <path d="M15.000,4.000 C21.627,4.000 27.000,9.372 27.000,16.000 C27.000,22.627 21.627,28.000 15.000,28.000 C8.372,28.000 3.000,22.627 3.000,16.000 C3.000,9.372 8.372,4.000 15.000,4.000 Z" id="path-2" class="cls-4" fill-rule="evenodd"/>
    <path d="M41.500,9.500 C43.709,9.500 45.500,11.291 45.500,13.500 C45.500,15.709 43.709,17.500 41.500,17.500 C39.291,17.500 37.500,15.709 37.500,13.500 C37.500,11.291 39.291,9.500 41.500,9.500 Z" id="path-3" class="cls-5" fill-rule="evenodd"/>
  </g>
</svg>
